<svg xmlns="http://www.w3.org/2000/svg" width="222" height="222" viewBox="0 0 222 222">
    <circle id="Ellipse_18" data-name="Ellipse 18" cx="111" cy="111" r="111"/>
    <path id="Union_4" data-name="Union 4" d="M0,94.916V39.666H.037C1.171,17.632,28.7,0,62.5,0s61.328,17.632,62.463,39.666H125V94.916C125,117.606,97.018,136,62.5,136S0,117.606,0,94.916Z" transform="translate(49 43)" fill="#fff"/>
    <g id="Union_5" data-name="Union 5" transform="translate(54 61)" fill="#272727">
      <path d="M 57.00037002563477 109.5 C 25.84595680236816 109.5 0.5 94.81740570068359 0.5 76.77003479003906 L 0.5 32.5830192565918 L 0.5051142573356628 32.5830192565918 L 0.5324571132659912 32.11200332641602 C 0.7797714471817017 27.85276031494141 2.428028583526611 23.7298755645752 5.431457042694092 19.85786056518555 C 8.360071182250977 16.08228874206543 12.45141410827637 12.69620418548584 17.59182929992676 9.793661117553711 C 22.75775718688965 6.876718044281006 28.73520088195801 4.588603973388672 35.3581428527832 2.992846727371216 C 42.2234001159668 1.338718056678772 49.50490188598633 0.5000038146972656 57.00037002563477 0.5000038146972656 C 64.49567413330078 0.5000038146972656 71.77701568603516 1.338718056678772 78.64217376708984 2.992846727371216 C 85.2650146484375 4.588603973388672 91.24240112304688 6.876718044281006 96.40825653076172 9.793661117553711 C 101.5486297607422 12.69620418548584 105.6399459838867 16.08228874206543 108.5685424804688 19.85786056518555 C 111.5719604492188 23.72988891601562 113.22021484375 27.85277557373047 113.4675140380859 32.11200332641602 L 113.4948577880859 32.5830192565918 L 113.5 32.5830192565918 L 113.5 33.22873306274414 L 113.5 76.77003479003906 C 113.5 94.81740570068359 88.15437316894531 109.5 57.00037002563477 109.5 Z" stroke="none"/>
      <path d="M 57.00038528442383 109 C 64.61469268798828 109 71.99887847900391 108.1311874389648 78.94783020019531 106.4176788330078 C 85.64252471923828 104.7668685913086 91.64938354492188 102.406852722168 96.80158233642578 99.40317535400391 C 101.9155197143555 96.42180633544922 105.9225387573242 92.96112823486328 108.711296081543 89.11729431152344 C 111.5570602416992 85.19486236572266 113 81.0406494140625 113 76.77003479003906 L 113 32.6859130859375 L 112.9683532714844 32.14098739624023 C 112.7270126342773 27.98452758789062 111.1137847900391 23.95498847961426 108.1734619140625 20.1643123626709 C 105.2857666015625 16.44148063659668 101.2446594238281 13.09877300262451 96.16241455078125 10.22904968261719 C 91.03691101074219 7.334896087646484 85.10284423828125 5.063834667205811 78.52504730224609 3.478942394256592 C 71.69821166992188 1.834034562110901 64.45626068115234 1.000003814697266 57.00038528442383 1.000003814697266 C 49.5443229675293 1.000003814697266 42.30223083496094 1.834034562110901 35.47527694702148 3.478942394256592 C 28.89738464355469 5.063834667205811 22.96323013305664 7.334896087646484 17.83767700195312 10.22904968261719 C 12.75538444519043 13.09877300262451 8.714245796203613 16.44148063659668 5.826538562774658 20.1643123626709 C 2.886199951171875 23.95498847961426 1.272969245910645 27.98452758789062 1.031630754470825 32.14098739624023 L 1 32.68564987182617 L 1 76.77003479003906 C 1 81.0406494140625 2.442938566207886 85.19486236572266 5.288722991943359 89.11729431152344 C 8.077492713928223 92.96112823486328 12.08452320098877 96.42180633544922 17.19850730895996 99.40317535400391 C 22.35075378417969 102.406852722168 28.35770797729492 104.7668685913086 35.05249404907227 106.4176788330078 C 42.00155258178711 108.1311874389648 49.38589096069336 109 57.00038528442383 109 M 57.00038528442383 110 C 25.51950836181641 110 0 95.12220001220703 0 76.77003479003906 L 0 32.0830192565918 L 0.03330769389867783 32.0830192565918 C 1.068107724189758 14.26106548309326 26.17664527893066 3.814697265625e-06 57.00038528442383 3.814697265625e-06 C 87.82337188720703 3.814697265625e-06 112.9318771362305 14.26106548309326 113.9666748046875 32.0830192565918 L 114 32.0830192565918 L 114 76.77003479003906 C 114 95.12220001220703 88.48049163818359 110 57.00038528442383 110 Z" stroke="none" fill="#eaeaea"/>
    </g>
    <path id="Union_6" data-name="Union 6" d="M0,71.885V30.041H.031C1,13.354,24.569,0,53.5,0S106,13.354,106.969,30.041H107V71.885C107,89.069,83.047,103,53.5,103S0,89.069,0,71.885Z" transform="translate(57 66)"/>
    <path id="Rectangle_64" data-name="Rectangle 64" d="M0,0H1A6,6,0,0,1,7,6V20a6,6,0,0,1-6,6H0a0,0,0,0,1,0,0V0A0,0,0,0,1,0,0Z" transform="translate(173 98)" fill="#fff"/>
    <path id="Rectangle_65" data-name="Rectangle 65" d="M6,0H7A0,0,0,0,1,7,0V26a0,0,0,0,1,0,0H6a6,6,0,0,1-6-6V6A6,6,0,0,1,6,0Z" transform="translate(42 98)" fill="#fff"/>
    <circle id="Ellipse_25" data-name="Ellipse 25" cx="3.5" cy="3.5" r="3.5" transform="translate(88.4 120.633) rotate(94)" fill="#fff"/>
    <circle id="Ellipse_26" data-name="Ellipse 26" cx="3.5" cy="3.5" r="3.5" transform="translate(104.807 123.953) rotate(94)" fill="#fff"/>
    <line id="Line_2" data-name="Line 2" y1="21" x2="3" transform="translate(104.082 125.739) rotate(94)" fill="none" stroke="#fff" stroke-width="1"/>
    <circle id="Ellipse_36" data-name="Ellipse 36" cx="3.5" cy="3.5" r="3.5" transform="translate(91.275 136.873) rotate(94)" fill="#fff"/>
    <line id="Line_8" data-name="Line 8" x1="13" y1="14" transform="translate(99.883 128.453) rotate(94)" fill="none" stroke="#fff" stroke-width="1"/>
    <line id="Line_9" data-name="Line 9" x1="14" y2="4" transform="translate(88.121 124.623) rotate(94)" fill="none" stroke="#fff" stroke-width="1"/>
    <circle id="Ellipse_37" data-name="Ellipse 37" cx="3.5" cy="3.5" r="3.5" transform="matrix(0.326, 0.946, -0.946, 0.326, 133.907, 83.426)" fill="#fff"/>
    <circle id="Ellipse_38" data-name="Ellipse 38" cx="3.5" cy="3.5" r="3.5" transform="matrix(0.326, 0.946, -0.946, 0.326, 139.792, 99.618)" fill="#fff"/>
    <line id="Line_10" data-name="Line 10" x2="7" y2="16" transform="translate(131.749 87.703) rotate(4)" fill="none" stroke="#fff" stroke-width="1"/>
    <line id="Line_11" data-name="Line 11" y1="25" x2="33" transform="translate(104.696 101.851) rotate(4)" fill="none" stroke="#fff" stroke-width="1"/>
    <line id="Line_12" data-name="Line 12" y1="41" x2="29" transform="translate(103.817 85.75) rotate(4)" fill="none" stroke="#fff" stroke-width="1"/>
  </svg>
  