<svg id="Layer_1" data-name="Layer 1" xmlns="http://www.w3.org/2000/svg" xmlns:xlink="http://www.w3.org/1999/xlink" viewBox="0 0 538.86 131"><defs><style>.cls-1{fill:#333;}.cls-2{fill:url(#linear-gradient);}.cls-3{fill:url(#linear-gradient-2);}.cls-4{fill:url(#New_Gradient_Swatch_copy);}</style><linearGradient id="linear-gradient" x1="9.74" y1="72.41" x2="9.74" gradientUnits="userSpaceOnUse"><stop offset="0.43" stop-color="#00c6ff"/><stop offset="1" stop-color="#00adff"/></linearGradient><linearGradient id="linear-gradient-2" x1="84.37" y1="54.7" x2="84.37" y2="110.7" gradientUnits="userSpaceOnUse"><stop offset="0.17" stop-color="#0092ff"/><stop offset="1" stop-color="#0072ff"/></linearGradient><linearGradient id="New_Gradient_Swatch_copy" x1="72.9" y1="40.39" x2="24.57" y2="124.09" gradientUnits="userSpaceOnUse"><stop offset="0" stop-color="#00c6ff"/><stop offset="1" stop-color="#0072ff"/></linearGradient></defs><title>bclogo</title><path class="cls-1" d="M117.81,55.81h9.55V73.44h.29a10.74,10.74,0,0,1,4-2.79,13.6,13.6,0,0,1,5.36-1q6.61,0,10.1,4.52t3.49,13.78q0,9.92-4.89,15.06t-13.41,5.14a44.34,44.34,0,0,1-8.6-.77,25.77,25.77,0,0,1-5.88-1.73ZM134.2,77.7a6.55,6.55,0,0,0-4.3,1.36A8.52,8.52,0,0,0,127.36,83V99a8.74,8.74,0,0,0,2.54.81,18.09,18.09,0,0,0,2.9.22,6.81,6.81,0,0,0,5.91-2.83q2-2.83,2-9Q140.74,77.7,134.2,77.7Z"/><path class="cls-1" d="M185.4,104.08a18.71,18.71,0,0,1-6,3,26.21,26.21,0,0,1-8,1.21q-8.89,0-13-5.18t-4.11-14.22q0-9.7,4.63-14.55t13-4.85a20.24,20.24,0,0,1,5.44.73,12.65,12.65,0,0,1,4.7,2.42,12,12,0,0,1,3.31,4.56,17.89,17.89,0,0,1,1.25,7.13,32.29,32.29,0,0,1-.18,3.31q-.18,1.76-.55,3.67h-22q.22,4.63,2.39,7t7,2.35a15.64,15.64,0,0,0,9-2.79Zm-13.67-27q-3.75,0-5.55,2.24a11.07,11.07,0,0,0-2.17,6h13.67q.29-4-1.21-6.1A5.4,5.4,0,0,0,171.73,77.12Z"/><path class="cls-1" d="M214.4,107.24V86.37q0-4.48-1.25-6.46t-4.56-2a6.86,6.86,0,0,0-4.45,1.65,7.84,7.84,0,0,0-2.68,4.22v23.44h-9.55V55.81h9.55V74.62h.29a13.27,13.27,0,0,1,4.33-3.75,13.62,13.62,0,0,1,6.54-1.4,15.1,15.1,0,0,1,4.92.73,8,8,0,0,1,3.56,2.42,11,11,0,0,1,2.13,4.59,31.19,31.19,0,0,1,.7,7.16v22.85Z"/><path class="cls-1" d="M230.5,72.63a31.43,31.43,0,0,1,7-2.09,45,45,0,0,1,8.45-.77,19.18,19.18,0,0,1,6.39.92,9.21,9.21,0,0,1,6.21,6.65,20.66,20.66,0,0,1,.62,5.29q0,3.23-.22,6.5t-.26,6.43q0,3.16.18,6.14a23.07,23.07,0,0,0,1.1,5.62h-7.79l-1.54-5.07h-.37a13.09,13.09,0,0,1-4.08,3.93,12.38,12.38,0,0,1-6.72,1.65,13.1,13.1,0,0,1-4.63-.77,9.89,9.89,0,0,1-5.8-5.58,11.28,11.28,0,0,1-.81-4.37,10.22,10.22,0,0,1,1.51-5.69,10.88,10.88,0,0,1,4.34-3.75,21.52,21.52,0,0,1,6.76-2,47.82,47.82,0,0,1,8.78-.33q.51-4.11-.59-5.91t-4.92-1.8a33.56,33.56,0,0,0-6.06.59,22.17,22.17,0,0,0-5.25,1.54ZM242.62,100a7.34,7.34,0,0,0,4.56-1.29,9,9,0,0,0,2.5-2.75V91.15a26.31,26.31,0,0,0-4.37-.07,16,16,0,0,0-3.71.66A6.25,6.25,0,0,0,239,93.21a3.29,3.29,0,0,0-1,2.42,4.17,4.17,0,0,0,1.21,3.2A4.68,4.68,0,0,0,242.62,100Z"/><path class="cls-1" d="M278.28,89.75l1.25,5.66h.37l1-5.8,6.24-19.1h10.29l-15.35,37.1h-5.8L260.36,70.5h11.09Z"/><path class="cls-1" d="M299.37,60.14a4.84,4.84,0,0,1,1.58-3.64A6.08,6.08,0,0,1,305.32,55a6.63,6.63,0,0,1,4.52,1.51,4.66,4.66,0,0,1,1.73,3.64,4.45,4.45,0,0,1-1.73,3.56,6.85,6.85,0,0,1-4.52,1.43,6.27,6.27,0,0,1-4.37-1.43A4.61,4.61,0,0,1,299.37,60.14Zm1.4,10.36h9.55v36.73h-9.55Z"/><path class="cls-1" d="M315.85,88.87q0-9.33,4.56-14.36t12.78-5a19.18,19.18,0,0,1,7.64,1.4,14.28,14.28,0,0,1,5.36,3.93,16.82,16.82,0,0,1,3.2,6.13,27.89,27.89,0,0,1,1.07,7.93q0,9.33-4.52,14.36t-12.75,5a19.18,19.18,0,0,1-7.64-1.4,14.57,14.57,0,0,1-5.4-3.93,16.48,16.48,0,0,1-3.23-6.13A27.85,27.85,0,0,1,315.85,88.87Zm9.85,0a21.36,21.36,0,0,0,.44,4.48,12.47,12.47,0,0,0,1.32,3.6,6.38,6.38,0,0,0,2.31,2.39,6.6,6.6,0,0,0,3.42.84,6.28,6.28,0,0,0,5.58-2.72q1.84-2.72,1.84-8.6a17.2,17.2,0,0,0-1.69-8.19,6,6,0,0,0-5.73-3.12,6.5,6.5,0,0,0-5.51,2.64Q325.69,82.85,325.69,88.87Z"/><path class="cls-1" d="M376,79.47a12.46,12.46,0,0,0-4.11-.81,6.74,6.74,0,0,0-4.3,1.36,6.55,6.55,0,0,0-2.31,3.49v23.73h-9.55V70.5h7.42l1.1,4.85h.29a10,10,0,0,1,3.38-4.19,8.58,8.58,0,0,1,5-1.47,13.92,13.92,0,0,1,4.33.81Z"/><path class="cls-1" d="M406.38,105a16,16,0,0,1-5.33,2.46,24.56,24.56,0,0,1-6.43.84,17.86,17.86,0,0,1-7.46-1.4,12.7,12.7,0,0,1-5-3.93,16.18,16.18,0,0,1-2.76-6.13,34.75,34.75,0,0,1-.84-7.93q0-9.33,4.19-14.36t12.2-5a25.86,25.86,0,0,1,6.5.66,22.11,22.11,0,0,1,4.44,1.69l-2.28,7.79a19.36,19.36,0,0,0-3.34-1.25,14.75,14.75,0,0,0-3.78-.44,7.21,7.21,0,0,0-6,2.61q-2.06,2.61-2.06,8.34a17.22,17.22,0,0,0,.51,4.33,10.56,10.56,0,0,0,1.54,3.45A7.21,7.21,0,0,0,393.2,99a8.36,8.36,0,0,0,3.86.85,11.91,11.91,0,0,0,4.11-.62,14.37,14.37,0,0,0,3-1.51Z"/><path class="cls-1" d="M420,94.9a8,8,0,0,0,.66,3.75,2.26,2.26,0,0,0,2.13,1.18,9.93,9.93,0,0,0,1.73-.15,10.43,10.43,0,0,0,2.09-.66l1,7.49a18.09,18.09,0,0,1-3.6,1.18,21.14,21.14,0,0,1-5,.59q-4.19,0-6.39-1.95t-2.2-6.43V55.81H420Z"/><path class="cls-1" d="M428.84,88.87q0-9.33,4.56-14.36t12.78-5a19.18,19.18,0,0,1,7.64,1.4,14.28,14.28,0,0,1,5.36,3.93,16.82,16.82,0,0,1,3.2,6.13,27.89,27.89,0,0,1,1.07,7.93q0,9.33-4.52,14.36t-12.75,5a19.18,19.18,0,0,1-7.64-1.4,14.57,14.57,0,0,1-5.4-3.93,16.48,16.48,0,0,1-3.23-6.13A27.85,27.85,0,0,1,428.84,88.87Zm9.85,0a21.36,21.36,0,0,0,.44,4.48,12.47,12.47,0,0,0,1.32,3.6,6.38,6.38,0,0,0,2.31,2.39,6.6,6.6,0,0,0,3.42.84,6.28,6.28,0,0,0,5.58-2.72q1.84-2.72,1.84-8.6a17.2,17.2,0,0,0-1.69-8.19,6,6,0,0,0-5.73-3.12,6.5,6.5,0,0,0-5.51,2.64Q438.69,82.85,438.69,88.87Z"/><path class="cls-1" d="M478,70.5V91.37q0,4.48,1.07,6.46t4.15,2a6.51,6.51,0,0,0,4.52-1.62,9.93,9.93,0,0,0,2.68-4V70.5h9.55V96.07a58.66,58.66,0,0,0,.29,5.91,37.06,37.06,0,0,0,.88,5.25h-7.2l-1.69-5.44h-.29a13.72,13.72,0,0,1-4.7,4.63,13.43,13.43,0,0,1-7.13,1.84,15.77,15.77,0,0,1-5-.73,8.19,8.19,0,0,1-3.67-2.42,11.33,11.33,0,0,1-2.24-4.56,28.25,28.25,0,0,1-.77-7.2V70.5Z"/><path class="cls-1" d="M538.13,94.31q0,3.09.07,6.17a52.29,52.29,0,0,0,.66,6.83H532l-1.32-4.78h-.29a11.09,11.09,0,0,1-4.22,4.15,12.86,12.86,0,0,1-6.5,1.58q-6.91,0-10.73-4.56t-3.82-14.25q0-9.4,4.26-14.62t12.49-5.22a22.46,22.46,0,0,1,3.75.26,14.81,14.81,0,0,1,2.94.85V55.81h9.55Zm-16.24,5.88a6.63,6.63,0,0,0,4.41-1.36,7.35,7.35,0,0,0,2.28-3.93V79.32a7.29,7.29,0,0,0-2.28-1.21,10.76,10.76,0,0,0-3.23-.4A7.07,7.07,0,0,0,517,80.42q-2,2.72-2,9.33a15.07,15.07,0,0,0,1.65,7.57A5.62,5.62,0,0,0,521.89,100.18Z"/><path class="cls-2" d="M.09,72.41A1.63,1.63,0,0,1,0,71.69C0,51,.06,30.3,0,9.61A9.44,9.44,0,0,1,3.8,1.93,8,8,0,0,1,9.39,0a10.05,10.05,0,0,1,3.82.45C16.66,2,18.5,4.73,19.34,8.27a8.35,8.35,0,0,1,.13,1.94q0,16.21,0,32.42a1.2,1.2,0,0,1-.53,1.09,50.84,50.84,0,0,0-8.79,8.57A50,50,0,0,0,.29,72c0,.13-.07.26-.11.38S.12,72.38.09,72.41Z"/><path class="cls-3" d="M87.37,54.7c6.88,8.94,9.64,19.06,9.29,30-.31,9.53-3.77,18-9.28,25.95,0-4.08-2.19-6.86-5-9.27A11.37,11.37,0,0,0,72.29,99C79,88.15,78.81,77.44,72,66.73c.81.09,1.61.24,2.42.25a12.79,12.79,0,0,0,7.26-1.66,11.61,11.61,0,0,0,5.65-9.84C87.38,55.26,87.37,55,87.37,54.7Z"/><path class="cls-4" d="M49.11,131a45.83,45.83,0,0,1-18.7-3.88A49.8,49.8,0,0,1,4.68,101.39,45.35,45.35,0,0,1,.8,82.89,44.2,44.2,0,0,1,4.68,64.68a51.1,51.1,0,0,1,10.53-15.3A52.25,52.25,0,0,1,30.61,38.75a44.46,44.46,0,0,1,18.51-4c14.58,0,26,4.69,33.83,14a10.78,10.78,0,0,1,1.77,3,9.63,9.63,0,0,1,.52,3,10.21,10.21,0,0,1-3.1,7.45,8.45,8.45,0,0,1-3.46,2.1,13.19,13.19,0,0,1-4,.61,9.84,9.84,0,0,1-7.26-2.71A26.64,26.64,0,0,0,49.11,55.1a25.74,25.74,0,0,0-10.7,2.31,30.31,30.31,0,0,0-9,6.18,29.23,29.23,0,0,0-6.09,8.89,25.71,25.71,0,0,0,.1,21.1,31.65,31.65,0,0,0,6.19,9.09,28.32,28.32,0,0,0,8.88,6.18,22,22,0,0,0,10.56,1.83c7.07,0,13.63-2.66,19.52-7.91,1.28-1.41,3.39-2.12,6.27-2.12A9.52,9.52,0,0,1,81.94,104a9.29,9.29,0,0,1,3.29,6.85,10.25,10.25,0,0,1-.62,3.42,6.44,6.44,0,0,1-1.93,2.88,47.8,47.8,0,0,1-15.17,10.4A47.13,47.13,0,0,1,49.11,131Z"/></svg>