<svg xmlns="http://www.w3.org/2000/svg" xmlns:xlink="http://www.w3.org/1999/xlink" width="96.697" height="131.033" viewBox="0 0 96.697 131.033">
    <defs>
      <linearGradient id="linear-gradient" x1="0.5" y1="1" x2="0.5" gradientUnits="objectBoundingBox">
        <stop offset="0.43" stop-color="#00c6ff"/>
        <stop offset="1" stop-color="#00adff"/>
      </linearGradient>
      <linearGradient id="linear-gradient-2" x1="0.501" x2="0.501" y2="1.001" gradientUnits="objectBoundingBox">
        <stop offset="0.17" stop-color="#0092ff"/>
        <stop offset="1" stop-color="#0072ff"/>
      </linearGradient>
      <linearGradient id="linear-gradient-3" x1="0.854" y1="0.059" x2="0.282" y2="0.928" gradientUnits="objectBoundingBox">
        <stop offset="0" stop-color="#00c6ff"/>
        <stop offset="1" stop-color="#0072ff"/>
      </linearGradient>
    </defs>
    <g id="Group_1634" data-name="Group 1634" transform="translate(0.008 0.028)">
      <path id="Path_2069" data-name="Path 2069" d="M.09,72.41A1.63,1.63,0,0,1,0,71.69C0,51,.06,30.3,0,9.61A9.44,9.44,0,0,1,3.8,1.93,8,8,0,0,1,9.39,0a10.05,10.05,0,0,1,3.82.45,10.643,10.643,0,0,1,6.13,7.82,8.35,8.35,0,0,1,.13,1.94q0,16.21,0,32.42a1.2,1.2,0,0,1-.53,1.09,50.84,50.84,0,0,0-8.79,8.57A50,50,0,0,0,.29,72a1.274,1.274,0,0,1-.11.38C.14,72.5.12,72.38.09,72.41Z" fill="url(#linear-gradient)"/>
      <path id="Path_2070" data-name="Path 2070" d="M87.37,54.7c6.88,8.94,9.64,19.06,9.29,30-.31,9.53-3.77,18-9.28,25.95,0-4.08-2.19-6.86-5-9.27A11.37,11.37,0,0,0,72.29,99C79,88.15,78.81,77.44,72,66.73c.81.09,1.61.24,2.42.25a12.79,12.79,0,0,0,7.26-1.66,11.61,11.61,0,0,0,5.65-9.84A3.753,3.753,0,0,0,87.37,54.7Z" fill="url(#linear-gradient-2)"/>
      <path id="Path_2071" data-name="Path 2071" d="M49.11,131a45.83,45.83,0,0,1-18.7-3.88A49.8,49.8,0,0,1,4.68,101.39,45.35,45.35,0,0,1,.8,82.89,44.2,44.2,0,0,1,4.68,64.68a51.1,51.1,0,0,1,10.53-15.3,52.25,52.25,0,0,1,15.4-10.63,44.46,44.46,0,0,1,18.51-4c14.58,0,26,4.69,33.83,14a10.78,10.78,0,0,1,1.77,3,9.63,9.63,0,0,1,.52,3,10.21,10.21,0,0,1-3.1,7.45,8.45,8.45,0,0,1-3.46,2.1,13.19,13.19,0,0,1-4,.61,9.84,9.84,0,0,1-7.26-2.71,26.64,26.64,0,0,0-18.31-7.1,25.74,25.74,0,0,0-10.7,2.31,30.31,30.31,0,0,0-9,6.18,29.23,29.23,0,0,0-6.09,8.89,25.71,25.71,0,0,0,.1,21.1,31.65,31.65,0,0,0,6.19,9.09,28.32,28.32,0,0,0,8.88,6.18,22,22,0,0,0,10.56,1.83c7.07,0,13.63-2.66,19.52-7.91,1.28-1.41,3.39-2.12,6.27-2.12a9.52,9.52,0,0,1,7.1,3.35,9.29,9.29,0,0,1,3.29,6.85,10.25,10.25,0,0,1-.62,3.42,6.44,6.44,0,0,1-1.93,2.88,47.8,47.8,0,0,1-15.17,10.4A47.13,47.13,0,0,1,49.11,131Z" fill="url(#linear-gradient-3)"/>
    </g>
  </svg>
  